<?xml version="1.0" encoding="UTF-8"?>
<svg id="Layer_2" data-name="Layer 2" xmlns="http://www.w3.org/2000/svg" viewBox="0 0 1986 670">
  <defs>
    <style>
      .cls-1 {
        fill: #fff;
      }
    </style>
  </defs>
  <g id="MainTextOnly">
    <path id="WEG_Grey" class="cls-1" d="m626,658h-212l-32-234h-11l-86,234H72L0,11h194l-2,100,21,346h11l111-296-16-150h203l-1,121,28,325h11l120-334,32-112h184l-270,647Zm502-494l-13,92h98l105-3,9,14-30,146-115-3h-90l-6,38-5,57h96l167-6,9,14-30,145h-455l33-190L948,11h463l9,14-31,145-158-6h-103ZM1898.5,8c35,5.34,64.16,12.67,87.5,22l-64,176h-16c-31.34-16.66-58.67-28.66-82-36-23.34-7.33-49.34-11-78-11-32.67,0-59.34,6.17-80,18.5-20.67,12.34-36.84,35.84-48.5,70.5-11.67,34.67-17.5,84.67-17.5,150,0,46,8.33,77.84,25,95.5,16.66,17.67,45,26.5,85,26.5,9.33,0,21.33-1.33,36-4l4-33,10-111,184-13-14,90-22,177c-79.34,29.34-154.34,44-225,44-94,0-166.17-23.66-216.5-71-50.34-47.33-75.5-113.66-75.5-199,0-128.66,34.5-227.5,103.5-296.5S1663,0,1793,0c35.33,0,70.5,2.67,105.5,8Z"/>
  </g>
</svg>