<?xml version="1.0" encoding="UTF-8"?>
<svg id="Layer_1" data-name="Layer 1" xmlns="http://www.w3.org/2000/svg" viewBox="0 0 400 400">
  <defs>
    <style>
      .cls-1 {
        fill: none;
        stroke: #000;
        stroke-linejoin: bevel;
        stroke-width: 6px;
      }

      .cls-2 {
        stroke-width: 0px;
      }
    </style>
  </defs>
  <path class="cls-2" d="m200,5.5c26.26,0,51.73,5.14,75.71,15.28,23.16,9.8,43.96,23.82,61.83,41.68,17.86,17.86,31.89,38.66,41.68,61.83,10.14,23.98,15.28,49.45,15.28,75.71s-5.14,51.73-15.28,75.71c-9.8,23.16-23.82,43.96-41.68,61.83s-38.66,31.89-61.83,41.68c-23.98,10.14-49.45,15.28-75.71,15.28s-51.73-5.14-75.71-15.28c-23.16-9.8-43.96-23.82-61.83-41.68-17.86-17.86-31.89-38.66-41.68-61.83-10.14-23.98-15.28-49.45-15.28-75.71s5.14-51.73,15.28-75.71c9.8-23.16,23.82-43.96,41.68-61.83,17.86-17.86,38.66-31.89,61.83-41.68,23.98-10.14,49.45-15.28,75.71-15.28m0-3C90.92,2.5,2.5,90.92,2.5,200s88.42,197.5,197.5,197.5,197.5-88.42,197.5-197.5S309.08,2.5,200,2.5h0Z"/>
  <g>
    <line class="cls-1" x1="200" y1="3" x2="200" y2="52.64"/>
    <polygon class="cls-2" points="200 95 175.61 35.3 200 49.47 224.39 35.3 200 95"/>
  </g>
</svg>